<svg xmlns="http://www.w3.org/2000/svg" width="1000" height="280" viewBox="0 0 1000 280" role="img" aria-labelledby="title desc">
  <title id="title">DumbDeV-cs — building with curiosity</title>
  <desc id="desc">A midnight-blue pixel-inspired banner with a web motif, a friendly robot, and a black cat.</desc>
  <defs>
    <linearGradient id="bg" x1="0" y1="0" x2="1" y2="1">
      <stop offset="0" stop-color="#10182c"/>
      <stop offset="1" stop-color="#192d46"/>
    </linearGradient>
    <linearGradient id="glow" x1="0" y1="0" x2="1" y2="0">
      <stop offset="0" stop-color="#70e4e9"/>
      <stop offset="1" stop-color="#a6f3ce"/>
    </linearGradient>
    <pattern id="grid" width="28" height="28" patternUnits="userSpaceOnUse">
      <path d="M28 0H0V28" fill="none" stroke="#aac9df" stroke-opacity=".055" stroke-width="1"/>
    </pattern>
  </defs>
  <rect width="1000" height="280" rx="24" fill="url(#bg)"/>
  <rect width="1000" height="280" rx="24" fill="url(#grid)"/>
  <circle cx="770" cy="136" r="118" fill="#64d8df" opacity=".06"/>
  <g fill="none" stroke="#72dfe5" stroke-opacity=".28" stroke-width="2">
    <path d="M1000 0 770 136 1000 280M1000 0 835 0 770 136 1000 164M1000 280 835 280 770 136"/>
    <path d="M875 0 770 136 875 280M940 0 770 136 940 280"/>
    <path d="M812 78q-10 25 0 48t0 48M853 46q-18 34 0 68t0 68M900 27q-22 48 0 96t0 96"/>
  </g>
  <g fill="#9df2d0">
    <rect x="748" y="45" width="6" height="6"/><rect x="915" y="203" width="6" height="6"/>
    <rect x="832" y="229" width="4" height="4"/><rect x="955" y="62" width="4" height="4"/>
  </g>
  <g font-family="Segoe UI, Arial, sans-serif">
    <text x="66" y="76" fill="#a6f3ce" font-size="15" font-weight="700" letter-spacing="3">HELLO, WORLD</text>
    <text x="62" y="142" fill="#f2f7fb" font-size="48" font-weight="750">Building with</text>
    <text x="62" y="198" fill="url(#glow)" font-size="48" font-weight="750">curiosity ✦</text>
    <text x="66" y="235" fill="#bdcadd" font-size="17">Apps · tiny companions · ideas made real</text>
  </g>
  <!-- pixel robot -->
  <g stroke="#18354a" stroke-width="5" stroke-linejoin="round">
    <path d="M816 92V76" stroke="#18354a" stroke-width="5"/>
    <rect x="807" y="61" width="18" height="14" rx="3" fill="#ffbe55"/>
    <rect x="784" y="87" width="65" height="49" rx="11" fill="#8ee5df"/>
    <rect x="795" y="99" width="43" height="24" rx="5" fill="#1d3046" stroke="#56b9cb" stroke-width="3"/>
    <rect x="802" y="106" width="6" height="8" fill="#9df2f3" stroke="none"/>
    <rect x="824" y="106" width="6" height="8" fill="#9df2f3" stroke="none"/>
    <path d="M807 151h20v39h-20z" fill="#79d1d8"/>
    <path d="M795 157v19m44-19v19" stroke="#8ee5df" stroke-width="8"/>
    <path d="M801 190v15h-14m40-15v15h14" fill="none" stroke="#ffbe55" stroke-width="8"/>
  </g>
  <!-- pixel cat -->
  <g stroke="#20253b" stroke-width="4" stroke-linejoin="round">
    <path d="M887 135V98l22 16q18-9 36 0l22-16v37q0 39-40 39t-40-39Z" fill="#30354e"/>
    <path d="m895 111 10 10m45-10-10 10" stroke="#f29bb1" stroke-width="5"/>
    <rect x="900" y="132" width="10" height="13" rx="3" fill="#ffe27b" stroke="none"/>
    <rect x="944" y="132" width="10" height="13" rx="3" fill="#ffe27b" stroke="none"/>
    <path d="M924 151v5m-7 5q7 8 14 0" fill="none" stroke="#f3bac7" stroke-width="3"/>
    <path d="M887 167q-17 13-11 27 7 12 23 0" fill="none" stroke="#30354e" stroke-width="8"/>
  </g>
</svg>
